<svg width="220" height="64" viewBox="0 0 220 64" fill="none" xmlns="http://www.w3.org/2000/svg">
  <rect width="220" height="64" rx="12" fill="#041825"/>
  <path d="M24 15L34.8 35.5L45.6 15H54V49H46.7V28.6L39.2 43.4H30.4L22.9 28.6V49H15.6V15H24Z" fill="#D7ECF5"/>
  <path d="M72.9 50C62.7 50 56.4 42.8 56.4 32C56.4 21.2 62.7 14 72.9 14C83.1 14 89.4 21.2 89.4 32C89.4 42.8 83.1 50 72.9 50ZM72.9 42.8C78.5 42.8 82 38.6 82 32C82 25.4 78.5 21.2 72.9 21.2C67.3 21.2 63.8 25.4 63.8 32C63.8 38.6 67.3 42.8 72.9 42.8Z" fill="#D7ECF5"/>
  <path d="M106.7 49L95.1 15H103.1L110.3 37.8L117.5 15H123.6L130.8 37.8L138 15H146L134.4 49H127.3L120.5 27.8L113.8 49H106.7Z" fill="#D7ECF5"/>
  <path d="M149.8 49V15H157.6V49H149.8Z" fill="#D7ECF5"/>
  <circle cx="193" cy="32" r="17" fill="#1AA0C9"/>
  <path d="M182 32.6C182 26.5 186.2 22.3 192.4 22.3C197.2 22.3 200.7 24.7 202 28.4L195.4 30.6C194.9 29 193.7 28 192.1 28C189.7 28 188.1 29.8 188.1 32.6C188.1 35.4 189.7 37.2 192.1 37.2C193.8 37.2 194.9 36.2 195.5 34.5L202.1 36.6C200.8 40.5 197.3 43 192.3 43C186.2 43 182 38.8 182 32.6Z" fill="#041825"/>
</svg>
